<svg xmlns="http://www.w3.org/2000/svg" width="768" height="1190" viewBox="0 0 768 1190">
  <defs>
    <linearGradient id="base" x1="0" y1="0" x2="1" y2="1">
      <stop offset="0" stop-color="#020817"/>
      <stop offset=".34" stop-color="#050611"/>
      <stop offset=".64" stop-color="#1d4ed8"/>
      <stop offset="1" stop-color="#000"/>
    </linearGradient>
    <radialGradient id="glow" cx=".56" cy=".35" r=".62">
      <stop offset="0" stop-color="#38bdf8" stop-opacity=".46"/>
      <stop offset=".42" stop-color="#1d4ed8" stop-opacity=".18"/>
      <stop offset="1" stop-color="#000" stop-opacity=".86"/>
    </radialGradient>
    <linearGradient id="strokeA" x1="0" y1="0" x2="1" y2="0">
      <stop offset="0" stop-color="#38bdf8" stop-opacity="0"/>
      <stop offset=".28" stop-color="#38bdf8" stop-opacity=".9"/>
      <stop offset=".52" stop-color="#dbeafe" stop-opacity=".5"/>
      <stop offset="1" stop-color="#38bdf8" stop-opacity="0"/>
    </linearGradient>
    <linearGradient id="strokeB" x1="0" y1="0" x2="1" y2="0">
      <stop offset="0" stop-color="#dbeafe" stop-opacity="0"/>
      <stop offset=".32" stop-color="#dbeafe" stop-opacity=".7"/>
      <stop offset=".72" stop-color="#38bdf8" stop-opacity=".58"/>
      <stop offset="1" stop-color="#38bdf8" stop-opacity="0"/>
    </linearGradient>
    <linearGradient id="crystalMain" x1="0" y1="0" x2="1" y2="1">
      <stop offset="0" stop-color="#dbeafe" stop-opacity=".92"/>
      <stop offset=".34" stop-color="#38bdf8" stop-opacity=".76"/>
      <stop offset="1" stop-color="#1d4ed8" stop-opacity=".16"/>
    </linearGradient>
    <linearGradient id="crystalHot" x1="0" y1="0" x2="1" y2="1">
      <stop offset="0" stop-color="#fff" stop-opacity=".7"/>
      <stop offset=".38" stop-color="#dbeafe" stop-opacity=".56"/>
      <stop offset="1" stop-color="#38bdf8" stop-opacity=".16"/>
    </linearGradient>
    <filter id="softGlow" x="-20%" y="-20%" width="140%" height="140%">
      <feGaussianBlur stdDeviation="18"/>
    </filter>
  </defs>
  <rect width="768" height="1190" fill="url(#base)"/>
  <rect width="768" height="1190" fill="url(#glow)"/>
  <ellipse cx="420" cy="355" rx="360" ry="280" fill="#38bdf8" opacity=".22" filter="url(#softGlow)"/>
  
  <g opacity=".78" style="mix-blend-mode:screen">
    <polygon points="-120,310 470,95 910,190 240,405" fill="url(#strokeA)"/>
    <polygon points="-95,610 540,375 870,455 145,735" fill="url(#strokeB)" opacity=".72"/>
    <polygon points="12,760 620,530 825,610 195,865" fill="url(#strokeA)" opacity=".46"/>
  </g>
  <g opacity=".56" style="mix-blend-mode:screen">
    <path d="M80 170 L680 20" stroke="#dbeafe" stroke-width="7"/>
    <path d="M35 275 L706 92" stroke="#38bdf8" stroke-width="5"/>
    <path d="M96 812 L722 632" stroke="#38bdf8" stroke-width="4"/>
    <path d="M210 112 L690 950" stroke="#dbeafe" stroke-width="2"/>
  </g>

  
  <g style="mix-blend-mode:screen">
    
  <polygon points="8,290 118,100 265,162 210,775 42,700" fill="url(#crystalMain)" opacity="0.95" stroke="rgba(255,255,255,.25)" stroke-width="2"/>

    
  <polygon points="88,462 202,305 285,405 170,848 58,725" fill="url(#crystalHot)" opacity="0.74" stroke="rgba(255,255,255,.25)" stroke-width="2"/>

    
  <polygon points="202,330 302,180 386,242 315,700 220,655" fill="url(#crystalMain)" opacity="0.45" stroke="rgba(255,255,255,.25)" stroke-width="2"/>

    
  <polygon points="590,135 742,215 760,690 608,842 506,420" fill="url(#crystalMain)" opacity="0.98" stroke="rgba(255,255,255,.25)" stroke-width="2"/>

    
  <polygon points="520,390 665,285 734,465 624,892 502,710" fill="url(#crystalHot)" opacity="0.78" stroke="rgba(255,255,255,.25)" stroke-width="2"/>

    
  <polygon points="432,610 564,530 650,680 500,1030 385,880" fill="url(#crystalMain)" opacity="0.52" stroke="rgba(255,255,255,.25)" stroke-width="2"/>

    <g opacity=".48">
      
  <polygon points="42,130.4 50.64,120 60,138.72 53.16,172 43.8,160.56" fill="#dbeafe" opacity="0.3" stroke="rgba(255,255,255,.25)" stroke-width="2"/>

  <polygon points="155,303.2 172.76,287 192,316.16 177.94,368 158.7,350.18" fill="#38bdf8" opacity="0.3" stroke="rgba(255,255,255,.25)" stroke-width="2"/>

  <polygon points="268,476 294.88,454 324,493.6 302.72,564 273.6,539.8" fill="#dbeafe" opacity="0.3" stroke="rgba(255,255,255,.25)" stroke-width="2"/>

  <polygon points="381,631.6 396.84,621 414,640.08 401.46,674 384.3,662.34" fill="#38bdf8" opacity="0.3" stroke="rgba(255,255,255,.25)" stroke-width="2"/>

  <polygon points="494,154.4 518.96,138 546,167.52 526.24,220 499.2,201.96" fill="#dbeafe" opacity="0.3" stroke="rgba(255,255,255,.25)" stroke-width="2"/>

  <polygon points="607,327.2 620.92,305 636,344.96 624.98,416 609.9,391.58" fill="#38bdf8" opacity="0.3" stroke="rgba(255,255,255,.25)" stroke-width="2"/>

  <polygon points="720,482.8 743.04,472 768,491.44 749.76,526 724.8,514.12" fill="#dbeafe" opacity="0.3" stroke="rgba(255,255,255,.25)" stroke-width="2"/>

  <polygon points="153,655.6 165,639 178,668.88 168.5,722 155.5,703.74" fill="#38bdf8" opacity="0.3" stroke="rgba(255,255,255,.25)" stroke-width="2"/>

  <polygon points="266,178.4 287.12,156 310,196.32 293.28,268 270.4,243.36" fill="#dbeafe" opacity="0.3" stroke="rgba(255,255,255,.25)" stroke-width="2"/>

  <polygon points="379,334 389.08,323 400,342.8 392.02,378 381.1,365.9" fill="#38bdf8" opacity="0.3" stroke="rgba(255,255,255,.25)" stroke-width="2"/>

  <polygon points="492,506.8 511.2,490 532,520.24 516.8,574 496,555.52" fill="#dbeafe" opacity="0.3" stroke="rgba(255,255,255,.25)" stroke-width="2"/>

  <polygon points="605,679.6 633.32,657 664,697.68 641.58,770 610.9,745.14" fill="#38bdf8" opacity="0.3" stroke="rgba(255,255,255,.25)" stroke-width="2"/>

  <polygon points="718,185.2 735.28,174 754,194.16 740.32,230 721.6,217.68" fill="#dbeafe" opacity="0.3" stroke="rgba(255,255,255,.25)" stroke-width="2"/>

  <polygon points="151,358 177.4,341 206,371.6 185.1,426 156.5,407.3" fill="#38bdf8" opacity="0.3" stroke="rgba(255,255,255,.25)" stroke-width="2"/>

  <polygon points="264,530.8 279.36,508 296,549.04 283.84,622 267.2,596.92" fill="#dbeafe" opacity="0.3" stroke="rgba(255,255,255,.25)" stroke-width="2"/>

  <polygon points="377,686.4 401.48,675 428,695.52 408.62,732 382.1,719.46" fill="#38bdf8" opacity="0.3" stroke="rgba(255,255,255,.25)" stroke-width="2"/>

  <polygon points="490,209.2 503.44,192 518,222.96 507.36,278 492.8,259.08" fill="#dbeafe" opacity="0.3" stroke="rgba(255,255,255,.25)" stroke-width="2"/>

  <polygon points="603,382 625.56,359 650,400.4 632.14,474 607.7,448.7" fill="#38bdf8" opacity="0.3" stroke="rgba(255,255,255,.25)" stroke-width="2"/>

  <polygon points="716,537.6 727.52,526 740,546.88 730.88,584 718.4,571.24" fill="#dbeafe" opacity="0.3" stroke="rgba(255,255,255,.25)" stroke-width="2"/>

  <polygon points="149,710.4 169.64,693 192,724.32 175.66,780 153.3,760.86" fill="#38bdf8" opacity="0.3" stroke="rgba(255,255,255,.25)" stroke-width="2"/>

  <polygon points="262,233.2 271.6,210 282,251.76 274.4,326 264,300.48" fill="#dbeafe" opacity="0.3" stroke="rgba(255,255,255,.25)" stroke-width="2"/>

  <polygon points="375,388.8 393.72,377 414,398.24 399.18,436 378.9,423.02" fill="#38bdf8" opacity="0.3" stroke="rgba(255,255,255,.25)" stroke-width="2"/>

  <polygon points="488,561.6 515.84,544 546,575.68 523.96,632 493.8,612.64" fill="#dbeafe" opacity="0.3" stroke="rgba(255,255,255,.25)" stroke-width="2"/>

  <polygon points="601,734.4 617.8,711 636,753.12 622.7,828 604.5,802.26" fill="#38bdf8" opacity="0.3" stroke="rgba(255,255,255,.25)" stroke-width="2"/>

  <polygon points="714,240 739.92,228 768,249.6 747.48,288 719.4,274.8" fill="#dbeafe" opacity="0.3" stroke="rgba(255,255,255,.25)" stroke-width="2"/>

  <polygon points="147,412.8 161.88,395 178,427.04 166.22,484 150.1,464.42" fill="#38bdf8" opacity="0.3" stroke="rgba(255,255,255,.25)" stroke-width="2"/>

  <polygon points="260,585.6 284,562 310,604.48 291,680 265,654.04" fill="#dbeafe" opacity="0.3" stroke="rgba(255,255,255,.25)" stroke-width="2"/>

  <polygon points="373,741.2 385.96,729 400,750.96 389.74,790 375.7,776.58" fill="#38bdf8" opacity="0.3" stroke="rgba(255,255,255,.25)" stroke-width="2"/>

  <polygon points="486,264 508.08,246 532,278.4 514.52,336 490.6,316.2" fill="#dbeafe" opacity="0.3" stroke="rgba(255,255,255,.25)" stroke-width="2"/>

  <polygon points="599,436.8 610.04,413 622,455.84 613.26,532 601.3,505.82" fill="#38bdf8" opacity="0.3" stroke="rgba(255,255,255,.25)" stroke-width="2"/>

    </g>
  </g>

  
  <g style="mix-blend-mode:screen">
    <circle cx="20" cy="26" r="0.75" fill="#38bdf8" opacity="0.48"/><circle cx="109" cy="175" r="1.01" fill="white" opacity="0.48"/><circle cx="198" cy="324" r="1.27" fill="white" opacity="0.48"/><circle cx="287" cy="473" r="0.75" fill="white" opacity="0.48"/><circle cx="376" cy="622" r="1.01" fill="white" opacity="0.48"/><circle cx="465" cy="771" r="1.27" fill="#38bdf8" opacity="0.48"/><circle cx="554" cy="920" r="0.75" fill="white" opacity="0.48"/><circle cx="643" cy="159" r="1.01" fill="#dbeafe" opacity="0.48"/><circle cx="732" cy="308" r="1.27" fill="white" opacity="0.48"/><circle cx="101" cy="457" r="0.75" fill="white" opacity="0.48"/><circle cx="190" cy="606" r="1.01" fill="#38bdf8" opacity="0.48"/><circle cx="279" cy="755" r="1.27" fill="white" opacity="0.48"/><circle cx="368" cy="904" r="0.75" fill="white" opacity="0.48"/><circle cx="457" cy="143" r="1.01" fill="white" opacity="0.48"/><circle cx="546" cy="292" r="1.27" fill="#dbeafe" opacity="0.48"/><circle cx="635" cy="441" r="0.75" fill="#38bdf8" opacity="0.48"/><circle cx="724" cy="590" r="1.01" fill="white" opacity="0.48"/><circle cx="93" cy="739" r="1.27" fill="white" opacity="0.48"/><circle cx="182" cy="888" r="0.75" fill="white" opacity="0.48"/><circle cx="271" cy="127" r="1.01" fill="white" opacity="0.48"/><circle cx="360" cy="276" r="1.27" fill="#38bdf8" opacity="0.48"/><circle cx="449" cy="425" r="0.75" fill="#dbeafe" opacity="0.48"/><circle cx="538" cy="574" r="1.01" fill="white" opacity="0.48"/><circle cx="627" cy="723" r="1.27" fill="white" opacity="0.48"/><circle cx="716" cy="872" r="0.75" fill="white" opacity="0.48"/><circle cx="85" cy="111" r="1.01" fill="#38bdf8" opacity="0.48"/><circle cx="174" cy="260" r="1.27" fill="white" opacity="0.48"/><circle cx="263" cy="409" r="0.75" fill="white" opacity="0.48"/><circle cx="352" cy="558" r="1.01" fill="#dbeafe" opacity="0.48"/><circle cx="441" cy="707" r="1.27" fill="white" opacity="0.48"/><circle cx="530" cy="856" r="0.75" fill="#38bdf8" opacity="0.48"/><circle cx="619" cy="95" r="1.01" fill="white" opacity="0.48"/><circle cx="708" cy="244" r="1.27" fill="white" opacity="0.48"/><circle cx="77" cy="393" r="0.75" fill="white" opacity="0.48"/><circle cx="166" cy="542" r="1.01" fill="white" opacity="0.48"/><circle cx="255" cy="691" r="1.27" fill="#38bdf8" opacity="0.48"/><circle cx="344" cy="840" r="0.75" fill="white" opacity="0.48"/><circle cx="433" cy="79" r="1.01" fill="white" opacity="0.48"/><circle cx="522" cy="228" r="1.27" fill="white" opacity="0.48"/><circle cx="611" cy="377" r="0.75" fill="white" opacity="0.48"/><circle cx="700" cy="526" r="1.01" fill="#38bdf8" opacity="0.48"/><circle cx="69" cy="675" r="1.27" fill="white" opacity="0.48"/><circle cx="158" cy="824" r="0.75" fill="#dbeafe" opacity="0.48"/><circle cx="247" cy="63" r="1.01" fill="white" opacity="0.48"/><circle cx="336" cy="212" r="1.27" fill="white" opacity="0.48"/>
  </g>

  <path d="M0 0H768V1190H0z" fill="url(#vignette)" opacity="0"/>
  <rect width="768" height="1190" fill="url(#bottomFade)"/>
  <defs>
    <linearGradient id="bottomFade" x1="0" y1="0" x2="0" y2="1">
      <stop offset=".42" stop-color="#000" stop-opacity="0"/>
      <stop offset=".78" stop-color="#000" stop-opacity=".7"/>
      <stop offset="1" stop-color="#000" stop-opacity=".96"/>
    </linearGradient>
  </defs>
</svg>