<svg width="1600" height="1200" viewBox="0 0 1600 1200" fill="none" xmlns="http://www.w3.org/2000/svg">
  <defs>
    <linearGradient id="bg" x1="0" y1="0" x2="1600" y2="1200" gradientUnits="userSpaceOnUse">
      <stop stop-color="#120E0A"/>
      <stop offset="0.45" stop-color="#2B1A10"/>
      <stop offset="1" stop-color="#0A0D12"/>
    </linearGradient>
    <linearGradient id="court" x1="800" y1="240" x2="800" y2="1040" gradientUnits="userSpaceOnUse">
      <stop stop-color="#7F4A24"/>
      <stop offset="1" stop-color="#563018"/>
    </linearGradient>
    <radialGradient id="lights" cx="0" cy="0" r="1" gradientUnits="userSpaceOnUse" gradientTransform="translate(800 180) rotate(90) scale(500 900)">
      <stop stop-color="#FFF2CF" stop-opacity="0.5"/>
      <stop offset="1" stop-color="#FFF2CF" stop-opacity="0"/>
    </radialGradient>
    <filter id="blur" x="-120" y="-120" width="1840" height="1440" filterUnits="userSpaceOnUse">
      <feGaussianBlur stdDeviation="18"/>
    </filter>
  </defs>

  <g filter="url(#blur)">
    <rect width="1600" height="1200" fill="url(#bg)"/>
    <ellipse cx="800" cy="210" rx="760" ry="250" fill="url(#lights)"/>
    <ellipse cx="800" cy="1040" rx="880" ry="220" fill="#06080B"/>

    <rect x="280" y="250" width="1040" height="740" rx="32" fill="url(#court)" stroke="#A76534" stroke-width="8"/>
    <rect x="336" y="304" width="928" height="632" rx="18" stroke="#F4E4CE" stroke-opacity="0.68" stroke-width="8"/>
    <line x1="800" y1="304" x2="800" y2="936" stroke="#F4E4CE" stroke-opacity="0.72" stroke-width="8"/>
    <circle cx="800" cy="620" r="102" stroke="#F4E4CE" stroke-opacity="0.72" stroke-width="8"/>
    <circle cx="800" cy="620" r="16" fill="#F4E4CE" fill-opacity="0.6"/>

    <rect x="336" y="448" width="148" height="344" stroke="#F4E4CE" stroke-opacity="0.72" stroke-width="8"/>
    <rect x="1116" y="448" width="148" height="344" stroke="#F4E4CE" stroke-opacity="0.72" stroke-width="8"/>
    <rect x="336" y="514" width="72" height="212" stroke="#F4E4CE" stroke-opacity="0.72" stroke-width="8"/>
    <rect x="1192" y="514" width="72" height="212" stroke="#F4E4CE" stroke-opacity="0.72" stroke-width="8"/>

    <path d="M484 448C584 448 664 528 664 628" stroke="#F4E4CE" stroke-opacity="0.72" stroke-width="8"/>
    <path d="M1116 448C1016 448 936 528 936 628" stroke="#F4E4CE" stroke-opacity="0.72" stroke-width="8"/>
    <path d="M484 792C584 792 664 712 664 612" stroke="#F4E4CE" stroke-opacity="0.72" stroke-width="8"/>
    <path d="M1116 792C1016 792 936 712 936 612" stroke="#F4E4CE" stroke-opacity="0.72" stroke-width="8"/>

    <rect x="365" y="598" width="18" height="44" rx="9" fill="#F7F1E8"/>
    <rect x="1217" y="598" width="18" height="44" rx="9" fill="#F7F1E8"/>
    <path d="M357 620H327" stroke="#F7F1E8" stroke-width="8" stroke-linecap="round"/>
    <path d="M1243 620H1273" stroke="#F7F1E8" stroke-width="8" stroke-linecap="round"/>

    <path d="M326 620C326 620 315 632 308 646M326 620C326 620 315 608 308 594M1274 620C1274 620 1285 632 1292 646M1274 620C1274 620 1285 608 1292 594" stroke="#F7F1E8" stroke-width="4" stroke-linecap="round"/>

    <path d="M540 1000C590 1010 668 1018 744 1020" stroke="#2A2E35" stroke-width="18" stroke-linecap="round" opacity="0.32"/>
    <path d="M820 1022C932 1018 1030 1008 1098 992" stroke="#2A2E35" stroke-width="18" stroke-linecap="round" opacity="0.32"/>

    <g opacity="0.18">
      <circle cx="144" cy="210" r="78" fill="#D96A21"/>
      <path d="M74 210H214M144 140V280M94 160C112 184 122 220 122 260M194 160C176 184 166 220 166 260" stroke="#3A2316" stroke-width="8" stroke-linecap="round"/>
    </g>
  </g>
</svg>
